<?xml version="1.0" encoding="UTF-8"?> <svg xmlns="http://www.w3.org/2000/svg" width="534" height="521" viewBox="0 0 534 521" fill="none"><rect x="1.14331" y="42.1154" width="532.013" height="75.4921" rx="5.5" fill="#F5F5F5" stroke="#E7E7E7"></rect><path d="M317.919 240.045L320.806 235.045L315.032 235.045L317.919 240.045ZM317.419 135.872L317.419 235.545L318.419 235.545L318.419 135.872L317.419 135.872Z" fill="black"></path><path d="M317.919 441.498L320.806 436.498L315.032 436.498L317.919 441.498ZM317.419 337.325L317.419 436.998L318.419 436.998L318.419 337.325L317.419 337.325Z" fill="black"></path><rect x="239.953" y="163.422" width="155.932" height="49.0732" fill="white"></rect><rect x="223.962" y="370.395" width="188.94" height="39.6537" fill="white"></rect><path fill-rule="evenodd" clip-rule="evenodd" d="M372.288 189.719L370.578 184.993H370.164L368.457 189.719H372.288ZM376.157 195.365H374.331L372.9 191.409H367.846L366.417 195.365H364.59L369.333 182.3H371.415L376.157 195.365Z" fill="black"></path><path fill-rule="evenodd" clip-rule="evenodd" d="M356.514 188.816C357.829 188.816 359.397 188.401 359.397 186.427C359.397 184.334 357.591 184.022 356.514 184.022H352.659V188.816H356.514ZM357.97 190.375L361.028 195.354H358.933L356 190.553H352.659V195.354H350.922V182.3H356.514C359.705 182.3 361.133 184.373 361.133 186.427C361.133 189.371 358.793 190.182 357.97 190.375Z" fill="black"></path><path fill-rule="evenodd" clip-rule="evenodd" d="M344.824 190.396C344.824 190.536 344.785 193.827 341.467 193.827C338.378 193.827 338.116 191.2 338.11 190.396V182.3H336.372V190.396C336.372 192.758 337.707 195.517 341.467 195.517C345.227 195.517 346.561 192.758 346.561 190.396V182.3H344.824V190.396Z" fill="black"></path><path fill-rule="evenodd" clip-rule="evenodd" d="M332.915 182.3V184.037H324.441V187.458H331.967V189.174H324.441V195.354H322.704V182.3H332.915Z" fill="black"></path><path fill-rule="evenodd" clip-rule="evenodd" d="M315.589 182.3V192.675H315.21L309.078 182.3H306.831V195.354H308.568V185.308H308.947L314.8 195.354H317.326V182.3H315.589Z" fill="black"></path><path fill-rule="evenodd" clip-rule="evenodd" d="M292.721 182.3V183.912H296.579V193.743H292.721V195.354H302.174V193.743H298.317V183.912H302.174V182.3H292.721Z" fill="black"></path><path fill-rule="evenodd" clip-rule="evenodd" d="M260.362 178.996V182.013L267.568 181.271H270.228V186.154L265.749 187.524L259.681 188.987L260.582 191.937L266.397 189.702L270.228 188.531V196.547H267.568L260.362 195.804V198.821H282.369V195.804L275.163 196.547H272.503V188.531L276.315 189.696L282.15 191.937L283.05 188.987L276.998 187.528L272.503 186.154V181.271H275.163L282.369 182.013V178.996H260.362Z" fill="black"></path><rect x="1.14331" y="478.819" width="87.6158" height="40.9888" rx="5.5" fill="#F5F5F5" stroke="#E7E7E7"></rect><rect x="1.14331" y="277.541" width="87.6158" height="40.9888" rx="5.5" fill="#F5F5F5" stroke="#E7E7E7"></rect><rect x="102.682" y="478.819" width="430.474" height="40.9888" rx="5.5" fill="#F5F5F5" stroke="#E7E7E7"></rect><rect x="102.682" y="277.541" width="430.474" height="40.9888" rx="5.5" fill="#F5F5F5" stroke="#E7E7E7"></rect><rect x="83.3008" y="63.0569" width="33.6091" height="33.6091" rx="4.5" stroke="#121212"></rect><rect x="132.119" y="63.0569" width="33.6091" height="33.6091" rx="4.5" stroke="#121212"></rect><rect x="180.937" y="63.0569" width="33.6091" height="33.6091" rx="4.5" stroke="#121212"></rect><rect x="229.755" y="63.0569" width="33.6091" height="33.6091" rx="4.5" stroke="#121212"></rect><rect x="376.208" y="63.0569" width="33.6091" height="33.6091" rx="4.5" stroke="#121212"></rect><rect x="278.573" y="63.0569" width="33.6091" height="33.6091" rx="4.5" stroke="#121212"></rect><rect x="425.026" y="63.0569" width="33.6091" height="33.6091" rx="4.5" stroke="#121212"></rect><rect x="327.39" y="63.0569" width="33.6091" height="33.6091" rx="4.5" stroke="#121212"></rect><rect x="473.844" y="63.0569" width="33.6091" height="33.6091" rx="4.5" stroke="#121212"></rect><path d="M204.22 469.845L224.861 464.7L224.861 494.339L204.22 499.483L204.22 469.845Z" fill="#353535"></path><path d="M183.58 464.7L204.22 469.845L204.22 499.483L183.58 494.339L183.58 464.7Z" fill="#707070"></path><path d="M183.58 464.7L204.22 459.556L224.861 464.7L204.22 469.845L183.58 464.7Z" fill="#121212"></path><path d="M317.919 469.845L338.559 464.7L338.559 494.339L317.919 499.483L317.919 469.845Z" fill="#353535"></path><path d="M297.278 464.7L317.919 469.845L317.919 499.483L297.278 494.339L297.278 464.7Z" fill="#707070"></path><rect width="21.2717" height="21.2717" transform="matrix(0.970316 -0.241842 0.970316 0.241842 297.278 464.7)" fill="#121212"></rect><path d="M431.617 469.845L452.257 464.7L452.257 494.339L431.617 499.483L431.617 469.845Z" fill="#353535"></path><path d="M410.977 464.7L431.617 469.845L431.617 499.483L410.977 494.339L410.977 464.7Z" fill="#707070"></path><rect width="21.2717" height="21.2717" transform="matrix(0.970316 -0.241842 0.970316 0.241842 410.977 464.7)" fill="#121212"></rect><path d="M144.483 268.397L165.123 263.252L165.123 292.891L144.483 298.035L144.483 268.397Z" fill="#353535"></path><path d="M123.842 263.252L144.483 268.397L144.483 298.035L123.842 292.891L123.842 263.252Z" fill="#707070"></path><rect width="21.2717" height="21.2717" transform="matrix(0.970316 -0.241842 0.970316 0.241842 123.842 263.252)" fill="#121212"></rect><path d="M202.295 268.397L222.935 263.252L222.935 292.891L202.295 298.035L202.295 268.397Z" fill="#353535"></path><path d="M181.654 263.252L202.295 268.397L202.295 298.035L181.654 292.891L181.654 263.252Z" fill="#707070"></path><rect width="21.2717" height="21.2717" transform="matrix(0.970316 -0.241842 0.970316 0.241842 181.654 263.252)" fill="#121212"></rect><path d="M260.107 268.397L280.747 263.252L280.747 292.891L260.107 298.035L260.107 268.397Z" fill="#353535"></path><path d="M239.466 263.252L260.107 268.397L260.107 298.035L239.466 292.891L239.466 263.252Z" fill="#707070"></path><rect width="21.2717" height="21.2717" transform="matrix(0.970316 -0.241842 0.970316 0.241842 239.466 263.252)" fill="#121212"></rect><path d="M317.919 268.397L338.559 263.252L338.559 292.891L317.919 298.035L317.919 268.397Z" fill="#353535"></path><path d="M297.278 263.252L317.919 268.397L317.919 298.035L297.278 292.891L297.278 263.252Z" fill="#707070"></path><rect width="21.2717" height="21.2717" transform="matrix(0.970316 -0.241842 0.970316 0.241842 297.278 263.252)" fill="#121212"></rect><path d="M375.731 268.397L396.371 263.252L396.371 292.891L375.731 298.035L375.731 268.397Z" fill="#353535"></path><path d="M355.09 263.252L375.731 268.397L375.731 298.035L355.09 292.891L355.09 263.252Z" fill="#707070"></path><rect width="21.2717" height="21.2717" transform="matrix(0.970316 -0.241842 0.970316 0.241842 355.09 263.252)" fill="#121212"></rect><path d="M433.543 268.397L454.183 263.252L454.183 292.891L433.543 298.035L433.543 268.397Z" fill="#353535"></path><path d="M412.903 263.252L433.543 268.397L433.543 298.035L412.903 292.891L412.903 263.252Z" fill="#707070"></path><rect width="21.2717" height="21.2717" transform="matrix(0.970316 -0.241842 0.970316 0.241842 412.903 263.252)" fill="#121212"></rect><path d="M491.355 268.397L511.995 263.252L511.995 292.891L491.355 298.035L491.355 268.397Z" fill="#353535"></path><path d="M470.715 263.252L491.355 268.397L491.355 298.035L470.715 292.891L470.715 263.252Z" fill="#707070"></path><rect width="21.2717" height="21.2717" transform="matrix(0.970316 -0.241842 0.970316 0.241842 470.715 263.252)" fill="#121212"></rect><path d="M5.09229 11.9906C7.54929 11.9906 8.86229 10.6516 8.86229 8.2206V2.5656H7.12029V8.0776C7.12029 10.0016 6.44429 10.5996 5.10529 10.5996C3.72729 10.5996 3.18129 9.8976 3.18129 8.1946V2.5656H1.43929V8.3246C1.43929 10.7166 2.76529 11.9906 5.09229 11.9906ZM14.0708 11.9906C16.1248 11.9906 17.4898 10.7296 17.4898 9.1176C17.4898 7.2586 16.3588 6.6346 14.1748 6.3356C12.5628 6.1016 12.2508 5.7246 12.2508 4.9706C12.2508 4.2556 12.7968 3.7486 13.8498 3.7486C14.9158 3.7486 15.4748 4.1646 15.6438 5.1396H17.2298C17.0478 3.3586 15.8518 2.4486 13.8498 2.4486C11.9128 2.4486 10.6128 3.5926 10.6128 5.1136C10.6128 6.8556 11.6658 7.5316 13.8888 7.8306C15.3968 8.0776 15.8258 8.4026 15.8258 9.2606C15.8258 10.1186 15.0978 10.6906 14.0708 10.6906C12.4978 10.6906 12.1208 9.9106 12.0038 8.9746H10.3398C10.4698 10.7296 11.5358 11.9906 14.0708 11.9906ZM19.1638 11.8606H25.1958V10.4956H20.8928V7.7786H24.1688V6.4786H20.8928V3.9306H24.9748V2.5656H19.1638V11.8606ZM26.7556 11.8606H28.4846V8.1036H29.5896L32.0206 11.8606H33.8926L31.2796 7.8436C32.4366 7.5446 33.3466 6.8036 33.3466 5.3476V5.2956C33.3466 3.3976 31.9166 2.5656 29.8756 2.5656H26.7556V11.8606ZM28.4846 6.8686V3.9046H29.8756C30.9806 3.9046 31.6436 4.2686 31.6436 5.3346V5.3866C31.6436 6.3746 31.0326 6.8686 29.8756 6.8686H28.4846ZM40.2308 11.8606H41.9728V3.9306H44.5598V2.5656H37.6438V3.9306H40.2308V11.8606ZM45.9509 11.8606H47.6799V8.1036H48.7849L51.2159 11.8606H53.0879L50.4749 7.8436C51.6319 7.5446 52.5419 6.8036 52.5419 5.3476V5.2956C52.5419 3.3976 51.1119 2.5656 49.0709 2.5656H45.9509V11.8606ZM47.6799 6.8686V3.9046H49.0709C50.1759 3.9046 50.8389 4.2686 50.8389 5.3346V5.3866C50.8389 6.3746 50.2279 6.8686 49.0709 6.8686H47.6799ZM53.7544 11.8606H55.3794L56.1074 9.5596H59.6564L60.3974 11.8606H62.1914L59.1234 2.5656H56.8614L53.7544 11.8606ZM57.8884 3.9826L59.2534 8.2986H56.5104L57.8884 3.9826ZM63.6101 11.8606H65.1831V4.7366L69.3691 11.8606H71.1631V2.5656H69.5901V9.2866L65.6771 2.5656H63.6101V11.8606ZM76.4556 11.9906C78.5096 11.9906 79.8746 10.7296 79.8746 9.1176C79.8746 7.2586 78.7436 6.6346 76.5596 6.3356C74.9476 6.1016 74.6356 5.7246 74.6356 4.9706C74.6356 4.2556 75.1816 3.7486 76.2346 3.7486C77.3006 3.7486 77.8596 4.1646 78.0286 5.1396H79.6146C79.4326 3.3586 78.2366 2.4486 76.2346 2.4486C74.2976 2.4486 72.9976 3.5926 72.9976 5.1136C72.9976 6.8556 74.0506 7.5316 76.2736 7.8306C77.7816 8.0776 78.2106 8.4026 78.2106 9.2606C78.2106 10.1186 77.4826 10.6906 76.4556 10.6906C74.8826 10.6906 74.5056 9.9106 74.3886 8.9746H72.7246C72.8546 10.7296 73.9206 11.9906 76.4556 11.9906ZM80.5035 11.8606H82.1285L82.8565 9.5596H86.4055L87.1465 11.8606H88.9405L85.8725 2.5656H83.6105L80.5035 11.8606ZM84.6375 3.9826L86.0025 8.2986H83.2595L84.6375 3.9826ZM93.9076 11.9906C96.1176 11.9906 97.7036 10.8596 97.9766 8.6236H96.2866C96.1046 9.9366 95.1946 10.5866 93.9076 10.5866C92.1916 10.5866 91.1906 9.3516 91.1906 7.2586V7.1546C91.1906 5.0746 92.2566 3.8006 93.8946 3.8006C95.2336 3.8006 95.9226 4.4376 96.1176 5.6726H97.8726C97.6646 3.4886 96.0136 2.4226 93.8816 2.4226C91.2946 2.4226 89.3706 4.3726 89.3706 7.1676V7.2716C89.3706 10.1316 90.9956 11.9906 93.9076 11.9906ZM101.206 11.8606H102.948V3.9306H105.535V2.5656H98.6194V3.9306H101.206V11.8606ZM106.978 11.8606H108.72V2.5656H106.978V11.8606ZM115.177 10.5996C113.487 10.5996 112.252 9.2866 112.252 7.2586V7.1546C112.252 5.1526 113.331 3.8136 115.151 3.8136C116.971 3.8136 118.037 5.2306 118.037 7.1416V7.2456C118.037 9.2606 116.932 10.5996 115.177 10.5996ZM115.151 11.9906C117.972 11.9906 119.831 9.9496 119.831 7.2326V7.1286C119.831 4.3986 117.92 2.4356 115.151 2.4356C112.395 2.4356 110.445 4.4506 110.445 7.1676V7.2716C110.445 9.9496 112.304 11.9906 115.151 11.9906ZM121.501 11.8606H123.074V4.7366L127.26 11.8606H129.054V2.5656H127.481V9.2866L123.568 2.5656H121.501V11.8606ZM134.346 11.9906C136.4 11.9906 137.765 10.7296 137.765 9.1176C137.765 7.2586 136.634 6.6346 134.45 6.3356C132.838 6.1016 132.526 5.7246 132.526 4.9706C132.526 4.2556 133.072 3.7486 134.125 3.7486C135.191 3.7486 135.75 4.1646 135.919 5.1396H137.505C137.323 3.3586 136.127 2.4486 134.125 2.4486C132.188 2.4486 130.888 3.5926 130.888 5.1136C130.888 6.8556 131.941 7.5316 134.164 7.8306C135.672 8.0776 136.101 8.4026 136.101 9.2606C136.101 10.1186 135.373 10.6906 134.346 10.6906C132.773 10.6906 132.396 9.9106 132.279 8.9746H130.615C130.745 10.7296 131.811 11.9906 134.346 11.9906Z" fill="#767676"></path><path d="M1.51729 222.908H5.09229C7.13329 222.908 8.27729 222.037 8.27729 220.308V220.256C8.27729 219.021 7.67929 218.332 6.41829 218.059C7.47129 217.734 7.88729 217.006 7.88729 216.083V216.031C7.88729 214.341 6.75629 213.613 4.84529 213.613H1.51729V222.908ZM3.20729 221.673V218.696H4.76729C6.04129 218.696 6.57429 219.177 6.57429 220.139V220.191C6.57429 221.153 6.04129 221.673 4.88429 221.673H3.20729ZM3.20729 217.526V214.848H4.61129C5.71629 214.848 6.22329 215.225 6.22329 216.109V216.161C6.22329 217.11 5.78129 217.526 4.63729 217.526H3.20729ZM9.05425 222.908H10.6792L11.4072 220.607H14.9562L15.6972 222.908H17.4912L14.4232 213.613H12.1612L9.05425 222.908ZM13.1882 215.03L14.5532 219.346H11.8102L13.1882 215.03ZM19.8548 222.908H21.5968V214.978H24.1838V213.613H17.2678V214.978H19.8548V222.908ZM29.2504 223.038C31.4604 223.038 33.0464 221.907 33.3194 219.671H31.6294C31.4474 220.984 30.5374 221.634 29.2504 221.634C27.5344 221.634 26.5334 220.399 26.5334 218.306V218.202C26.5334 216.122 27.5994 214.848 29.2374 214.848C30.5764 214.848 31.2654 215.485 31.4604 216.72H33.2154C33.0074 214.536 31.3564 213.47 29.2244 213.47C26.6374 213.47 24.7134 215.42 24.7134 218.215V218.319C24.7134 221.179 26.3384 223.038 29.2504 223.038ZM34.8171 222.908H36.5461V218.956H40.7191V222.908H42.4611V213.613H40.7191V217.565H36.5461V213.613H34.8171V222.908ZM47.6775 222.908H49.4065V219.372H50.7065C52.6955 219.372 54.1125 218.501 54.1125 216.538V216.486C54.1125 214.536 52.7475 213.613 50.6675 213.613H47.6775V222.908ZM49.4065 218.124V214.952H50.6675C51.7725 214.952 52.4225 215.381 52.4225 216.486V216.538C52.4225 217.565 51.8115 218.124 50.6675 218.124H49.4065ZM55.5993 222.908H57.3283V219.151H58.4333L60.8643 222.908H62.7363L60.1233 218.891C61.2803 218.592 62.1903 217.851 62.1903 216.395V216.343C62.1903 214.445 60.7603 213.613 58.7193 213.613H55.5993V222.908ZM57.3283 217.916V214.952H58.7193C59.8243 214.952 60.4873 215.316 60.4873 216.382V216.434C60.4873 217.422 59.8763 217.916 58.7193 217.916H57.3283ZM68.2549 221.647C66.5649 221.647 65.3299 220.334 65.3299 218.306V218.202C65.3299 216.2 66.4089 214.861 68.2289 214.861C70.0489 214.861 71.1149 216.278 71.1149 218.189V218.293C71.1149 220.308 70.0099 221.647 68.2549 221.647ZM68.2289 223.038C71.0499 223.038 72.9089 220.997 72.9089 218.28V218.176C72.9089 215.446 70.9979 213.483 68.2289 213.483C65.4729 213.483 63.5229 215.498 63.5229 218.215V218.319C63.5229 220.997 65.3819 223.038 68.2289 223.038ZM78.6478 223.038C80.8578 223.038 82.4438 221.907 82.7168 219.671H81.0268C80.8448 220.984 79.9348 221.634 78.6478 221.634C76.9318 221.634 75.9308 220.399 75.9308 218.306V218.202C75.9308 216.122 76.9968 214.848 78.6348 214.848C79.9738 214.848 80.6628 215.485 80.8578 216.72H82.6128C82.4048 214.536 80.7538 213.47 78.6218 213.47C76.0348 213.47 74.1108 215.42 74.1108 218.215V218.319C74.1108 221.179 75.7358 223.038 78.6478 223.038ZM84.2146 222.908H90.2466V221.543H85.9436V218.826H89.2196V217.526H85.9436V214.978H90.0256V213.613H84.2146V222.908ZM94.9654 223.038C97.0194 223.038 98.3844 221.777 98.3844 220.165C98.3844 218.306 97.2534 217.682 95.0694 217.383C93.4574 217.149 93.1454 216.772 93.1454 216.018C93.1454 215.303 93.6914 214.796 94.7444 214.796C95.8104 214.796 96.3694 215.212 96.5384 216.187H98.1244C97.9424 214.406 96.7464 213.496 94.7444 213.496C92.8074 213.496 91.5074 214.64 91.5074 216.161C91.5074 217.903 92.5604 218.579 94.7834 218.878C96.2914 219.125 96.7204 219.45 96.7204 220.308C96.7204 221.166 95.9924 221.738 94.9654 221.738C93.3924 221.738 93.0154 220.958 92.8984 220.022H91.2344C91.3644 221.777 92.4304 223.038 94.9654 223.038ZM103.09 223.038C105.144 223.038 106.509 221.777 106.509 220.165C106.509 218.306 105.378 217.682 103.194 217.383C101.582 217.149 101.27 216.772 101.27 216.018C101.27 215.303 101.816 214.796 102.869 214.796C103.935 214.796 104.494 215.212 104.663 216.187H106.249C106.067 214.406 104.871 213.496 102.869 213.496C100.932 213.496 99.6324 214.64 99.6324 216.161C99.6324 217.903 100.685 218.579 102.908 218.878C104.416 219.125 104.845 219.45 104.845 220.308C104.845 221.166 104.117 221.738 103.09 221.738C101.517 221.738 101.14 220.958 101.023 220.022H99.3594C99.4894 221.777 100.555 223.038 103.09 223.038ZM108.235 222.908H109.977V213.613H108.235V222.908ZM112.17 222.908H113.743V215.784L117.929 222.908H119.723V213.613H118.15V220.334L114.237 213.613H112.17V222.908ZM126.029 223.038C128.655 223.038 130.267 221.478 130.267 218.904V218.046H126.224V219.346H128.564C128.512 220.633 127.797 221.686 126.055 221.686C124.105 221.686 123.182 220.321 123.182 218.332V218.228C123.182 216.187 124.235 214.835 126.055 214.835C127.264 214.835 128.096 215.368 128.304 216.603H130.033C129.786 214.38 128.018 213.47 126.029 213.47C123.312 213.47 121.388 215.446 121.388 218.215V218.319C121.388 221.062 123.052 223.038 126.029 223.038Z" fill="#767676"></path><path d="M1.51729 424.498H3.24629V420.962H4.54629C6.53529 420.962 7.95229 420.091 7.95229 418.128V418.076C7.95229 416.126 6.58729 415.203 4.50729 415.203H1.51729V424.498ZM3.24629 419.714V416.542H4.50729C5.61229 416.542 6.26229 416.971 6.26229 418.076V418.128C6.26229 419.155 5.65129 419.714 4.50729 419.714H3.24629ZM9.43917 424.498H11.1682V420.741H12.2732L14.7042 424.498H16.5762L13.9632 420.481C15.1202 420.182 16.0302 419.441 16.0302 417.985V417.933C16.0302 416.035 14.6002 415.203 12.5592 415.203H9.43917V424.498ZM11.1682 419.506V416.542H12.5592C13.6642 416.542 14.3272 416.906 14.3272 417.972V418.024C14.3272 419.012 13.7162 419.506 12.5592 419.506H11.1682ZM22.0948 423.237C20.4048 423.237 19.1698 421.924 19.1698 419.896V419.792C19.1698 417.79 20.2488 416.451 22.0688 416.451C23.8888 416.451 24.9548 417.868 24.9548 419.779V419.883C24.9548 421.898 23.8498 423.237 22.0948 423.237ZM22.0688 424.628C24.8898 424.628 26.7488 422.587 26.7488 419.87V419.766C26.7488 417.036 24.8378 415.073 22.0688 415.073C19.3128 415.073 17.3628 417.088 17.3628 419.805V419.909C17.3628 422.587 19.2218 424.628 22.0688 424.628ZM32.6827 423.237C30.9927 423.237 29.7577 421.924 29.7577 419.896V419.792C29.7577 417.79 30.8367 416.451 32.6567 416.451C34.4767 416.451 35.5427 417.868 35.5427 419.779V419.883C35.5427 421.898 34.4377 423.237 32.6827 423.237ZM32.6567 424.628C35.4777 424.628 37.3367 422.587 37.3367 419.87V419.766C37.3367 417.036 35.4257 415.073 32.6567 415.073C29.9007 415.073 27.9507 417.088 27.9507 419.805V419.909C27.9507 422.587 29.8097 424.628 32.6567 424.628ZM39.0066 424.498H40.7356V420.689H43.9076V419.35H40.7356V416.581H44.7656V415.203H39.0066V424.498ZM51.7319 424.498H53.7339L56.8799 415.203H55.2549L52.8239 422.743L50.4059 415.203H48.5989L51.7319 424.498ZM58.24 424.498H64.272V423.133H59.969V420.416H63.245V419.116H59.969V416.568H64.051V415.203H58.24V424.498ZM65.8317 424.498H67.5607V420.741H68.6657L71.0967 424.498H72.9687L70.3557 420.481C71.5127 420.182 72.4227 419.441 72.4227 417.985V417.933C72.4227 416.035 70.9927 415.203 68.9517 415.203H65.8317V424.498ZM67.5607 419.506V416.542H68.9517C70.0567 416.542 70.7197 416.906 70.7197 417.972V418.024C70.7197 419.012 70.1087 419.506 68.9517 419.506H67.5607ZM74.4023 424.498H76.1443V415.203H74.4023V424.498ZM78.3366 424.498H80.0656V420.689H83.2376V419.35H80.0656V416.581H84.0956V415.203H78.3366V424.498ZM85.6503 424.498H87.3923V415.203H85.6503V424.498ZM93.6537 424.628C95.8637 424.628 97.4497 423.497 97.7227 421.261H96.0327C95.8507 422.574 94.9407 423.224 93.6537 423.224C91.9377 423.224 90.9367 421.989 90.9367 419.896V419.792C90.9367 417.712 92.0027 416.438 93.6407 416.438C94.9797 416.438 95.6687 417.075 95.8637 418.31H97.6187C97.4107 416.126 95.7597 415.06 93.6277 415.06C91.0407 415.06 89.1167 417.01 89.1167 419.805V419.909C89.1167 422.769 90.7417 424.628 93.6537 424.628ZM98.315 424.498H99.94L100.668 422.197H104.217L104.958 424.498H106.752L103.684 415.203H101.422L98.315 424.498ZM102.449 416.62L103.814 420.936H101.071L102.449 416.62ZM109.116 424.498H110.858V416.568H113.445V415.203H106.529V416.568H109.116V424.498ZM114.888 424.498H116.63V415.203H114.888V424.498ZM123.086 423.237C121.396 423.237 120.161 421.924 120.161 419.896V419.792C120.161 417.79 121.24 416.451 123.06 416.451C124.88 416.451 125.946 417.868 125.946 419.779V419.883C125.946 421.898 124.841 423.237 123.086 423.237ZM123.06 424.628C125.881 424.628 127.74 422.587 127.74 419.87V419.766C127.74 417.036 125.829 415.073 123.06 415.073C120.304 415.073 118.354 417.088 118.354 419.805V419.909C118.354 422.587 120.213 424.628 123.06 424.628ZM129.41 424.498H130.983V417.374L135.169 424.498H136.963V415.203H135.39V421.924L131.477 415.203H129.41V424.498Z" fill="#767676"></path><path d="M95.2553 84.3613H97.1313V75.8213H99.9173V74.3513H92.4693V75.8213H95.2553V84.3613ZM99.7958 84.3613H101.56L103.31 81.7153L105.018 84.3613H106.992L104.374 80.4833L106.74 77.0393H104.962L103.45 79.4053L101.924 77.0393H99.9638L102.344 80.6093L99.7958 84.3613Z" fill="black"></path><path d="M22.0992 303.732H28.2312V302.248H23.9612V293.722H22.0992V303.732ZM31.5882 303.872C32.7082 303.872 33.3522 303.466 33.8282 302.836V303.732H35.4942V298.93C35.4942 296.928 34.2062 296.256 32.5682 296.256C30.9302 296.256 29.5722 296.97 29.4322 298.678H31.0702C31.1542 297.95 31.5882 297.53 32.4702 297.53C33.4642 297.53 33.8002 298.02 33.8002 299V299.378H32.8902C30.7902 299.378 29.1382 299.994 29.1382 301.702C29.1382 303.228 30.2442 303.872 31.5882 303.872ZM31.9942 302.654C31.1542 302.654 30.8182 302.248 30.8182 301.632C30.8182 300.736 31.6442 300.442 32.9322 300.442H33.8002V301.17C33.8002 302.108 33.0302 302.654 31.9942 302.654ZM38.0427 306.238H39.7087L43.6987 296.41H42.0467L40.2547 301.128L38.3087 296.41H36.4747L39.3727 302.99L38.0427 306.238ZM47.9156 303.872C49.7916 303.872 51.0376 303.032 51.2756 301.492H49.6376C49.5116 302.206 48.9796 302.612 47.9576 302.612C46.6976 302.612 45.9976 301.828 45.9416 300.442H51.3036V299.952C51.3036 297.334 49.6656 296.256 47.8456 296.256C45.7596 296.256 44.2056 297.768 44.2056 300.036V300.148C44.2056 302.458 45.7596 303.872 47.9156 303.872ZM45.9696 299.308C46.1376 298.174 46.8236 297.488 47.8456 297.488C48.8956 297.488 49.5396 298.048 49.6236 299.308H45.9696ZM52.8167 303.732H54.5107V299.924C54.5107 298.37 55.4067 297.894 56.8907 297.88V296.298C55.6587 296.312 54.9727 296.858 54.5107 297.782V296.41H52.8167V303.732ZM60.919 303.732H68.157V302.29H63.901L66.127 300.12C67.317 298.972 68.087 297.838 68.087 296.536C68.087 294.772 66.855 293.582 64.783 293.582C62.669 293.582 61.353 294.842 61.227 297.026H62.935C63.103 295.612 63.733 295.038 64.727 295.038C65.693 295.038 66.225 295.626 66.225 296.564C66.225 297.516 65.651 298.398 64.699 299.406L60.919 303.396V303.732Z" fill="black"></path><path d="M22.6892 264.82H28.9612V263.462H25.2092L29.0732 257.736V257.498H23.0672V258.842H26.5672L22.6892 264.624V264.82ZM30.4319 264.82H32.1259V261.222L34.8699 264.82H36.8299L33.7499 260.858L36.5919 257.498H34.7439L32.1259 260.718V254.11H30.4319V264.82ZM38.1324 264.82H44.6284V263.35H39.9944V260.424H43.5224V259.024H39.9944V256.28H44.3904V254.81H38.1324V264.82ZM48.8562 264.82H51.0122L54.4002 254.81H52.6502L50.0322 262.93L47.4282 254.81H45.4822L48.8562 264.82ZM55.8649 264.82H57.5449V257.26L60.5829 264.82H61.1849L64.1669 257.26V264.82H66.0289V254.81H63.5649L60.9889 261.642L58.3569 254.81H55.8649V264.82Z" fill="black"></path><path d="M23.0993 503.813H29.2313V502.329H24.9613V493.803H23.0993V503.813ZM32.5882 503.953C33.7082 503.953 34.3522 503.547 34.8282 502.917V503.813H36.4942V499.011C36.4942 497.009 35.2062 496.337 33.5682 496.337C31.9302 496.337 30.5722 497.051 30.4322 498.759H32.0702C32.1542 498.031 32.5882 497.611 33.4702 497.611C34.4642 497.611 34.8002 498.101 34.8002 499.081V499.459H33.8902C31.7902 499.459 30.1382 500.075 30.1382 501.783C30.1382 503.309 31.2442 503.953 32.5882 503.953ZM32.9942 502.735C32.1542 502.735 31.8182 502.329 31.8182 501.713C31.8182 500.817 32.6442 500.523 33.9322 500.523H34.8002V501.251C34.8002 502.189 34.0302 502.735 32.9942 502.735ZM39.0428 506.319H40.7088L44.6988 496.491H43.0468L41.2548 501.209L39.3088 496.491H37.4748L40.3728 503.071L39.0428 506.319ZM48.9156 503.953C50.7916 503.953 52.0376 503.113 52.2756 501.573H50.6376C50.5116 502.287 49.9796 502.693 48.9576 502.693C47.6976 502.693 46.9976 501.909 46.9416 500.523H52.3036V500.033C52.3036 497.415 50.6656 496.337 48.8456 496.337C46.7596 496.337 45.2056 497.849 45.2056 500.117V500.229C45.2056 502.539 46.7596 503.953 48.9156 503.953ZM46.9696 499.389C47.1376 498.255 47.8236 497.569 48.8456 497.569C49.8956 497.569 50.5396 498.129 50.6236 499.389H46.9696ZM53.8167 503.813H55.5107V500.005C55.5107 498.451 56.4067 497.975 57.8907 497.961V496.379C56.6587 496.393 55.9727 496.939 55.5107 497.863V496.491H53.8167V503.813ZM64.2711 503.813H66.1471V493.803H64.4811L62.1571 495.455V497.093L64.2711 495.651V503.813Z" fill="black"></path><path d="M13.5992 466.056H20.0952V464.586H15.4612V461.66H18.9892V460.26H15.4612V457.516H19.8572V456.046H13.5992V466.056ZM24.127 466.182C24.645 466.182 25.009 466.098 25.275 466V464.656C25.037 464.754 24.785 464.796 24.449 464.796C23.917 464.796 23.609 464.502 23.609 463.858V460.008H25.219V458.734H23.609V457.124H21.915V458.734H20.935V460.008H21.915V464.012C21.915 465.398 22.671 466.182 24.127 466.182ZM26.803 466.056H28.497V461.744C28.497 460.582 29.267 459.994 30.219 459.994C31.227 459.994 31.675 460.498 31.675 461.604V466.056H33.369V461.45C33.369 459.434 32.333 458.58 30.863 458.58C29.659 458.58 28.847 459.182 28.497 459.896V455.346H26.803V466.056ZM38.5406 466.196C40.4166 466.196 41.6626 465.356 41.9006 463.816H40.2626C40.1366 464.53 39.6046 464.936 38.5826 464.936C37.3226 464.936 36.6226 464.152 36.5666 462.766H41.9286V462.276C41.9286 459.658 40.2906 458.58 38.4706 458.58C36.3846 458.58 34.8306 460.092 34.8306 462.36V462.472C34.8306 464.782 36.3846 466.196 38.5406 466.196ZM36.5946 461.632C36.7626 460.498 37.4486 459.812 38.4706 459.812C39.5206 459.812 40.1646 460.372 40.2486 461.632H36.5946ZM43.4417 466.056H45.1357V462.248C45.1357 460.694 46.0317 460.218 47.5157 460.204V458.622C46.2837 458.636 45.5977 459.182 45.1357 460.106V458.734H43.4417V466.056ZM52.0894 466.196C53.9654 466.196 55.2114 465.356 55.4494 463.816H53.8114C53.6854 464.53 53.1534 464.936 52.1314 464.936C50.8714 464.936 50.1714 464.152 50.1154 462.766H55.4774V462.276C55.4774 459.658 53.8394 458.58 52.0194 458.58C49.9334 458.58 48.3794 460.092 48.3794 462.36V462.472C48.3794 464.782 49.9334 466.196 52.0894 466.196ZM50.1434 461.632C50.3114 460.498 50.9974 459.812 52.0194 459.812C53.0694 459.812 53.7134 460.372 53.7974 461.632H50.1434ZM59.4405 466.196C60.6305 466.196 61.4005 465.622 61.7645 464.908V466.056H63.4585V458.734H61.7645V463.088C61.7645 464.25 60.9665 464.838 60.0565 464.838C59.0765 464.838 58.6145 464.334 58.6145 463.228V458.734H56.9205V463.424C56.9205 465.37 57.9985 466.196 59.4405 466.196ZM65.467 466.056H67.161V461.674C67.161 460.554 67.931 459.994 68.771 459.994C69.597 459.994 70.073 460.456 70.073 461.534V466.056H71.767V461.674C71.767 460.554 72.537 459.994 73.377 459.994C74.217 459.994 74.679 460.456 74.679 461.534V466.056H76.373V461.422C76.373 459.406 75.281 458.58 73.937 458.58C73.027 458.58 72.019 458.986 71.459 459.896C71.095 458.986 70.339 458.58 69.387 458.58C68.309 458.58 67.511 459.168 67.161 459.854V458.734H65.467V466.056Z" fill="black"></path><path d="M61.8819 59.8943L45.0737 72.3779L48.182 65.0128L61.8819 59.8943Z" fill="#E2761B"></path><path d="M23.0801 59.8943L39.7531 72.4962L36.7969 65.0128L23.0801 59.8943Z" fill="#E4761B"></path><path d="M55.8345 88.8313L51.358 95.6897L60.9361 98.325L63.6896 88.9833L55.8345 88.8313Z" fill="#E4761B"></path><path d="M21.3059 88.9833L24.0425 98.325L33.6206 95.6897L29.1441 88.8313L21.3059 88.9833Z" fill="#E4761B"></path><path d="M33.0798 77.2429L30.4108 81.2803L39.9213 81.7026L39.5835 71.4825L33.0798 77.2429Z" fill="#E4761B"></path><path d="M51.8813 77.2429L45.2932 71.3643L45.0736 81.7026L54.5673 81.2802L51.8813 77.2429Z" fill="#E4761B"></path><path d="M33.6208 95.6898L39.3306 92.9025L34.3979 89.051L33.6208 95.6898Z" fill="#E4761B"></path><path d="M45.6316 92.9025L51.3582 95.6898L50.5642 89.051L45.6316 92.9025Z" fill="#E4761B"></path><path d="M51.3583 95.6898L45.6317 92.9025L46.0878 96.6357L46.0371 98.2068L51.3583 95.6898Z" fill="#D7C1B3"></path><path d="M33.6209 95.6899L38.9421 98.2069L38.9083 96.6359L39.3306 92.9026L33.6209 95.6899Z" fill="#D7C1B3"></path><path d="M39.0262 86.5847L34.2625 85.1826L37.6241 83.6454L39.0262 86.5847Z" fill="#233447"></path><path d="M45.9354 86.5847L47.3375 83.6454L50.716 85.1826L45.9354 86.5847Z" fill="#233447"></path><path d="M33.6207 95.6898L34.4316 88.8314L29.1442 88.9835L33.6207 95.6898Z" fill="#CD6116"></path><path d="M50.5472 88.8314L51.358 95.6898L55.8346 88.9835L50.5472 88.8314Z" fill="#CD6116"></path><path d="M54.5673 81.2803L45.0737 81.7026L45.9521 86.5846L47.3542 83.6452L50.7327 85.1825L54.5673 81.2803Z" fill="#CD6116"></path><path d="M34.2629 85.1825L37.6414 83.6452L39.0266 86.5846L39.9219 81.7026L30.4114 81.2803L34.2629 85.1825Z" fill="#CD6116"></path><path d="M30.4113 81.2804L34.3979 89.051L34.2628 85.1826L30.4113 81.2804Z" fill="#E4751F"></path><path d="M50.733 85.1825L50.5641 89.0509L54.5676 81.2803L50.733 85.1825Z" fill="#E4751F"></path><path d="M39.9213 81.7028L39.026 86.5847L40.1409 92.3451L40.3943 84.7603L39.9213 81.7028Z" fill="#E4751F"></path><path d="M45.0737 81.7028L44.6176 84.7434L44.8203 92.3451L45.9521 86.5847L45.0737 81.7028Z" fill="#E4751F"></path><path d="M45.9525 86.5845L44.8207 92.3449L45.6315 92.9023L50.5642 89.0508L50.7331 85.1824L45.9525 86.5845Z" fill="#F6851B"></path><path d="M34.2625 85.1824L34.3976 89.0508L39.3302 92.9023L40.1411 92.3449L39.0262 86.5845L34.2625 85.1824Z" fill="#F6851B"></path><path d="M46.037 98.2069L46.0877 96.6359L45.6654 96.2643H39.2968L38.9083 96.6359L38.9421 98.2069L33.6209 95.6899L35.4791 97.2103L39.2462 99.8286H45.716L49.5 97.2103L51.3582 95.6899L46.037 98.2069Z" fill="#C0AD9E"></path><path d="M45.6312 92.9025L44.8204 92.3451H40.1411L39.3303 92.9025L38.908 96.6358L39.2965 96.2642H45.665L46.0873 96.6358L45.6312 92.9025Z" fill="#161616"></path><path d="M62.5917 73.1888L64.0276 66.2966L61.8822 59.8943L45.6315 71.9556L51.8818 77.243L60.7167 79.8276L62.6762 77.5471L61.8316 76.939L63.183 75.7058L62.1356 74.8949L63.487 73.8645L62.5917 73.1888Z" fill="#763D16"></path><path d="M20.9513 66.2966L22.3872 73.1888L21.475 73.8645L22.8264 74.8949L21.7959 75.7058L23.1473 76.939L22.3027 77.5471L24.2454 79.8276L33.0802 77.243L39.3305 71.9556L23.0798 59.8943L20.9513 66.2966Z" fill="#763D16"></path><path d="M60.7164 79.8276L51.8816 77.243L54.5675 81.2804L50.564 89.051L55.8345 88.9834H63.6895L60.7164 79.8276Z" fill="#F6851B"></path><path d="M33.0807 77.243L24.2458 79.8276L21.3065 88.9834H29.1447L34.3983 89.051L30.4117 81.2804L33.0807 77.243Z" fill="#F6851B"></path><path d="M45.0741 81.7027L45.6315 71.9557L48.1992 65.0128H36.7967L39.3306 71.9557L39.9218 81.7027L40.1245 84.7772L40.1414 92.3451H44.8207L44.8545 84.7772L45.0741 81.7027Z" fill="#F6851B"></path><path d="M234.221 395.597C236.067 395.597 237.432 394.414 237.432 392.854C237.432 391.099 236.34 390.475 234.273 390.15C232.375 389.864 232.037 389.396 232.037 388.486C232.037 387.615 232.7 386.978 233.974 386.978C235.261 386.978 235.937 387.459 236.158 388.629H237.172C236.99 386.978 235.833 386.068 233.974 386.068C232.219 386.068 230.984 387.16 230.984 388.59C230.984 390.241 232.141 390.852 234.091 391.151C235.859 391.437 236.34 391.879 236.34 392.932C236.34 393.985 235.417 394.687 234.221 394.687C232.349 394.687 231.907 393.751 231.764 392.646H230.672C230.841 394.232 231.738 395.597 234.221 395.597ZM241.528 395.597C242.62 395.597 243.374 395.038 243.686 394.401V395.48H244.765V388.681H243.686V392.802C243.686 394.024 242.776 394.661 241.814 394.661C240.748 394.661 240.241 394.128 240.241 392.932V388.681H239.162V392.984C239.162 394.856 240.176 395.597 241.528 395.597ZM250.326 395.597C252.198 395.597 253.42 394.167 253.42 392.087V391.983C253.42 389.864 252.107 388.564 250.326 388.564C249.338 388.564 248.415 389.162 248.025 389.825V385.431H246.946V395.48H248.025V394.362C248.415 395.038 249.221 395.597 250.326 395.597ZM250.222 394.7C248.896 394.7 247.986 393.881 247.986 392.139V392.035C247.986 390.293 248.948 389.461 250.209 389.461C251.353 389.461 252.302 390.319 252.302 392.035V392.139C252.302 393.79 251.574 394.7 250.222 394.7ZM255.096 395.48H256.175V391.32C256.175 390.098 257.085 389.5 257.969 389.5C258.905 389.5 259.412 389.994 259.412 391.19V395.48H260.491V391.32C260.491 390.098 261.401 389.5 262.285 389.5C263.221 389.5 263.728 389.994 263.728 391.19V395.48H264.807V391.268C264.807 389.292 263.741 388.564 262.519 388.564C261.674 388.564 260.66 388.954 260.192 389.838C259.841 388.928 259.074 388.564 258.203 388.564C257.228 388.564 256.487 389.084 256.175 389.721V388.681H255.096V395.48ZM266.954 395.48H268.033V388.681H266.954V395.48ZM267.474 387.264C267.864 387.264 268.189 386.939 268.189 386.549C268.189 386.159 267.864 385.834 267.474 385.834C267.084 385.834 266.759 386.159 266.759 386.549C266.759 386.939 267.084 387.264 267.474 387.264ZM272.309 395.571C272.751 395.571 273.011 395.506 273.232 395.428V394.518C272.998 394.609 272.738 394.661 272.4 394.661C271.854 394.661 271.555 394.336 271.555 393.673V389.591H273.141V388.681H271.555V387.134H270.476V388.681H269.501V389.591H270.476V393.777C270.476 394.843 271.074 395.571 272.309 395.571ZM281.683 395.597C283.555 395.597 284.777 394.167 284.777 392.087V391.983C284.777 389.864 283.464 388.564 281.683 388.564C280.695 388.564 279.772 389.162 279.382 389.825V385.431H278.303V395.48H279.382V394.362C279.772 395.038 280.578 395.597 281.683 395.597ZM281.579 394.7C280.253 394.7 279.343 393.881 279.343 392.139V392.035C279.343 390.293 280.305 389.461 281.566 389.461C282.71 389.461 283.659 390.319 283.659 392.035V392.139C283.659 393.79 282.931 394.7 281.579 394.7ZM288.157 395.597C289.158 395.597 289.769 395.259 290.276 394.622V395.48H291.355V390.995C291.355 389.097 290.172 388.564 288.872 388.564C287.559 388.564 286.324 389.136 286.181 390.683H287.26C287.364 389.851 287.884 389.461 288.82 389.461C289.86 389.461 290.276 389.916 290.276 390.995V391.489H289.301C287.559 391.489 285.895 392.022 285.895 393.595C285.895 394.986 286.896 395.597 288.157 395.597ZM288.261 394.739C287.312 394.739 286.974 394.297 286.974 393.595C286.974 392.594 287.975 392.256 289.34 392.256H290.276V393.101C290.276 394.154 289.405 394.739 288.261 394.739ZM295.541 395.571C295.983 395.571 296.243 395.506 296.464 395.428V394.518C296.23 394.609 295.97 394.661 295.632 394.661C295.086 394.661 294.787 394.336 294.787 393.673V389.591H296.373V388.681H294.787V387.134H293.708V388.681H292.733V389.591H293.708V393.777C293.708 394.843 294.306 395.571 295.541 395.571ZM300.916 395.597C302.554 395.597 303.737 394.505 303.88 393.036H302.879C302.762 394.141 301.891 394.7 300.929 394.7C299.616 394.7 298.706 393.816 298.706 392.152V392.048C298.706 390.449 299.655 389.461 300.89 389.461C301.826 389.461 302.606 389.864 302.775 390.943H303.841C303.633 389.214 302.307 388.564 300.89 388.564C299.07 388.564 297.588 389.968 297.588 392.048V392.152C297.588 394.258 299.018 395.597 300.916 395.597ZM305.509 395.48H306.588V391.359C306.588 390.137 307.485 389.5 308.486 389.5C309.578 389.5 310.085 390.033 310.085 391.229V395.48H311.164V391.307C311.164 389.331 310.176 388.564 308.772 388.564C307.654 388.564 306.9 389.123 306.588 389.76V385.431H305.509V395.48ZM318.526 394.115H319.475V391.489H321.906V390.579H319.475V387.953H318.526V390.579H316.095V391.489H318.526V394.115ZM328.604 395.48H329.982L332.426 388.681H331.308L329.319 394.388L327.304 388.681H326.134L328.604 395.48ZM335.485 395.597C336.486 395.597 337.097 395.259 337.604 394.622V395.48H338.683V390.995C338.683 389.097 337.5 388.564 336.2 388.564C334.887 388.564 333.652 389.136 333.509 390.683H334.588C334.692 389.851 335.212 389.461 336.148 389.461C337.188 389.461 337.604 389.916 337.604 390.995V391.489H336.629C334.887 391.489 333.223 392.022 333.223 393.595C333.223 394.986 334.224 395.597 335.485 395.597ZM335.589 394.739C334.64 394.739 334.302 394.297 334.302 393.595C334.302 392.594 335.303 392.256 336.668 392.256H337.604V393.101C337.604 394.154 336.733 394.739 335.589 394.739ZM340.828 395.48H341.92V385.431H340.828V395.48ZM344.155 395.48H345.234V388.681H344.155V395.48ZM344.675 387.264C345.065 387.264 345.39 386.939 345.39 386.549C345.39 386.159 345.065 385.834 344.675 385.834C344.285 385.834 343.96 386.159 343.96 386.549C343.96 386.939 344.285 387.264 344.675 387.264ZM350.003 395.597C350.991 395.597 351.94 394.973 352.33 394.31V395.48H353.409V385.431H352.33V389.773C351.94 389.11 351.238 388.564 350.107 388.564C348.235 388.564 346.935 390.033 346.935 392.113V392.217C346.935 394.336 348.222 395.597 350.003 395.597ZM350.12 394.7C348.976 394.7 348.053 393.881 348.053 392.165V392.061C348.053 390.41 348.859 389.461 350.211 389.461C351.537 389.461 352.369 390.28 352.369 392.022V392.126C352.369 393.868 351.381 394.7 350.12 394.7ZM355.618 395.48H356.697V388.681H355.618V395.48ZM356.138 387.264C356.528 387.264 356.853 386.939 356.853 386.549C356.853 386.159 356.528 385.834 356.138 385.834C355.748 385.834 355.423 386.159 355.423 386.549C355.423 386.939 355.748 387.264 356.138 387.264ZM360.973 395.571C361.415 395.571 361.675 395.506 361.896 395.428V394.518C361.662 394.609 361.402 394.661 361.064 394.661C360.518 394.661 360.219 394.336 360.219 393.673V389.591H361.805V388.681H360.219V387.134H359.14V388.681H358.165V389.591H359.14V393.777C359.14 394.843 359.738 395.571 360.973 395.571ZM364.138 397.846H365.23L368.987 388.681H367.882L365.997 393.556L363.917 388.681H362.76L365.425 394.778L364.138 397.846ZM373.848 397.846H374.927V394.362C375.317 395.038 376.11 395.597 377.228 395.597C379.1 395.597 380.322 394.167 380.322 392.087V391.983C380.322 389.864 379.009 388.564 377.228 388.564C376.24 388.564 375.317 389.162 374.927 389.825V388.681H373.848V397.846ZM377.124 394.7C375.798 394.7 374.888 393.881 374.888 392.139V392.035C374.888 390.293 375.85 389.461 377.111 389.461C378.255 389.461 379.204 390.319 379.204 392.035V392.139C379.204 393.79 378.476 394.7 377.124 394.7ZM381.999 395.48H383.078V391.749C383.078 390.072 383.949 389.643 385.314 389.578V388.564C384.092 388.603 383.507 389.136 383.078 389.903V388.681H381.999V395.48ZM389.53 394.7C388.152 394.7 387.307 393.686 387.307 392.139V392.035C387.307 390.475 388.165 389.461 389.53 389.461C390.882 389.461 391.753 390.475 391.753 392.048V392.139C391.753 393.673 390.895 394.7 389.53 394.7ZM389.517 395.597C391.454 395.597 392.871 394.18 392.871 392.126V392.022C392.871 389.981 391.454 388.564 389.53 388.564C387.606 388.564 386.189 389.994 386.189 392.035V392.139C386.189 394.128 387.58 395.597 389.517 395.597ZM397.376 394.7C395.998 394.7 395.153 393.686 395.153 392.139V392.035C395.153 390.475 396.011 389.461 397.376 389.461C398.728 389.461 399.599 390.475 399.599 392.048V392.139C399.599 393.673 398.741 394.7 397.376 394.7ZM397.363 395.597C399.3 395.597 400.717 394.18 400.717 392.126V392.022C400.717 389.981 399.3 388.564 397.376 388.564C395.452 388.564 394.035 389.994 394.035 392.035V392.139C394.035 394.128 395.426 395.597 397.363 395.597ZM402.621 395.48H403.7V389.591H405.364V388.681H403.7V387.459C403.7 386.77 403.986 386.289 404.688 386.289C404.987 386.289 405.26 386.354 405.455 386.432V385.522C405.182 385.431 405 385.392 404.649 385.392C403.297 385.392 402.621 386.198 402.621 387.576V388.681H401.646V389.591H402.621V395.48Z" fill="black"></path></svg> 